<?xml version="1.0" encoding="UTF-8"?>
<svg version="1.1" xmlns="http://www.w3.org/2000/svg" width="512" height="512">
<path d="M0 0 C1.24825058 -0.00671722 2.49650116 -0.01343445 3.78257751 -0.02035522 C7.18790167 -0.03604001 10.59298181 -0.04270692 13.99832511 -0.0439868 C16.13255386 -0.04541439 18.26675751 -0.04969551 20.40098 -0.05498123 C27.86596916 -0.07345467 35.33088718 -0.08165553 42.79589844 -0.08007812 C49.7225832 -0.07887857 56.64895545 -0.09995102 63.57556123 -0.13156545 C69.54786552 -0.15783966 75.52006848 -0.16844073 81.49243003 -0.16716731 C85.04808651 -0.16666078 88.60346513 -0.17216985 92.15906334 -0.19352341 C96.1335065 -0.21674297 100.10753166 -0.20731712 104.08203125 -0.1953125 C105.23832031 -0.20655151 106.39460938 -0.21779053 107.5859375 -0.22937012 C123.22382188 -0.11012644 136.73726584 5.69666294 148.11450195 16.35302734 C151.65844465 20.01380492 153.81504795 22.97572731 155.84610921 27.71025288 C157.9275521 32.31258013 159.78989316 35.69584424 164.73447609 37.56326675 C169.05698415 38.03132503 173.18363057 38.04607519 177.52001953 37.90820312 C179.15851208 37.9075674 180.79701704 37.91316091 182.43547058 37.92448425 C186.87146629 37.93811864 191.30247053 37.86641198 195.73749375 37.7802453 C200.39005374 37.70570223 205.04243021 37.71398427 209.69548035 37.71432495 C218.5122259 37.70318572 227.32690774 37.62429484 236.14296979 37.51800907 C251.91382656 37.33047219 267.6855487 37.26645587 283.45735472 37.2145251 C288.98600776 37.19375758 294.51360195 37.14632919 300.04183733 37.07573438 C303.49157456 37.03466034 306.94131486 37.00960928 310.391222 36.98780251 C311.98150698 36.97405323 313.57175062 36.9533078 315.16183853 36.92474556 C327.41096987 36.70893447 337.62521862 38.08730735 347.2902832 46.17333984 C356.74381293 55.8227054 358.66605051 65.977317 358.6550293 78.94799805 C358.66510513 80.66425888 358.66510513 80.66425888 358.67538452 82.41519165 C358.69431879 86.1822753 358.69828639 89.94918037 358.70043945 93.71630859 C358.70687032 96.34653292 358.71359889 98.97675653 358.72061157 101.60697937 C358.73337278 107.11535802 358.7363795 112.62368864 358.73510742 118.13208008 C358.73390696 124.47487417 358.75499939 130.8173275 358.78659475 137.16003543 C358.81602669 143.28963099 358.82308008 149.41906455 358.82188797 155.54872704 C358.82424047 158.14373351 358.83304408 160.7387428 358.8485527 163.33370399 C358.86825678 166.97104409 358.86235637 170.60751752 358.8503418 174.24487305 C358.86158081 175.30549454 358.87281982 176.36611603 358.88439941 177.45887756 C358.78832853 188.96639289 354.99336641 198.30096258 347.30200195 206.85302734 C341.30080019 212.6986904 332.92727318 216.10934018 324.57287598 216.38145447 C323.55729614 216.3668367 322.54171631 216.35221893 321.49536133 216.3371582 C320.33645386 216.32482651 319.17754639 216.31249481 317.98352051 216.29978943 C316.73768188 216.28513138 315.49184326 216.27047333 314.20825195 216.25537109 C310.85824909 216.24777025 307.50832354 216.24555438 304.15831757 216.24568844 C300.67323415 216.24270273 297.18994797 216.22226803 293.70532227 216.16381836 C275.51150666 215.02718282 275.51150666 215.02718282 259.48950195 221.95068359 C257.73644415 223.68659998 256.02174611 225.46291711 254.36450195 227.29052734 C252.88173896 228.48203332 251.37330589 229.64280681 249.83325195 230.75927734 C249.17486328 231.26225342 248.51647461 231.76522949 247.83813477 232.28344727 C247.18683594 232.78078369 246.53553711 233.27812012 245.86450195 233.79052734 C240.77571115 237.67929375 235.69024008 241.57223713 230.61450195 245.47802734 C229.06569336 246.66912109 229.06569336 246.66912109 227.4855957 247.88427734 C225.32880957 249.54708117 223.17508947 251.21331307 221.0246582 252.88427734 C218.83454853 254.58536122 216.63552088 256.273578 214.42700195 257.95068359 C212.48919438 259.4312279 210.56968761 260.936314 208.67700195 262.47412109 C203.69183974 266.34541112 200.03974032 268.27996876 193.6262207 267.78662109 C189.33649531 266.84569687 186.61462063 264.67896657 183.73168945 261.47705078 C180.45156128 256.23118865 181.99316235 249.18245499 183.1262207 243.40966797 C184.10078553 239.25761059 185.22697947 235.15088059 186.36450195 231.04052734 C187.68450195 226.17302734 189.00450195 221.30552734 190.36450195 216.29052734 C174.52450195 216.29052734 158.68450195 216.29052734 142.36450195 216.29052734 C142.03450195 217.94052734 141.70450195 219.59052734 141.36450195 221.29052734 C135.33373675 233.75205747 126.97760977 243.79923183 117.30200195 253.60302734 C116.39949707 254.51761719 116.39949707 254.51761719 115.47875977 255.45068359 C112.32780807 258.57228396 109.35194265 261.06087685 105.48950195 263.29052734 C102.66479749 265.22833535 102.3986726 266.11844643 101.7121582 269.57568359 C101.34322842 276.65572576 101.34322842 276.65572576 104.1809082 282.95849609 C123.16218585 296.86257309 152.76103244 294.15910919 174.82250977 293.99072266 C176.65162148 293.9849823 176.65162148 293.9849823 178.51768494 293.97912598 C180.81893164 293.96829681 183.12019336 293.93943267 185.4209137 293.88903809 C192.94347182 293.84755532 199.34794836 294.84106074 205.21052551 299.87591553 C210.42374629 305.12539884 212.36450195 312.03095157 212.36450195 319.29052734 C213.2462207 319.55736328 214.12793945 319.82419922 215.03637695 320.09912109 C232.15277929 326.22647169 244.51462324 341.37967412 252.11450195 357.30224609 C256.338933 367.40127656 257.48623563 377.60971682 257.6809082 388.45849609 C257.70191589 389.46292252 257.72292358 390.46734894 257.74456787 391.50221252 C257.81145417 394.82740118 257.87036037 398.15264899 257.92700195 401.47802734 C257.95677628 403.19354797 257.95677628 403.19354797 257.9871521 404.94372559 C258.13559199 413.72572393 258.25416334 422.50797745 258.36450195 431.29052734 C258.38242914 432.65228348 258.40041471 434.01403884 258.41845703 435.37579346 C258.52577393 443.60230108 258.60443168 451.82849286 258.65060425 460.05557251 C258.66812491 462.70046302 258.69241719 465.34531782 258.72366333 467.99008179 C258.76551863 471.71020356 258.78117541 475.42957479 258.7902832 479.14990234 C258.80774597 480.24774551 258.82520874 481.34558868 258.84320068 482.47669983 C258.81716233 491.80056876 256.3503799 498.86732888 250.0090332 505.78662109 C244.34737573 510.96414634 238.59693001 512.41195502 231.10619926 512.42754173 C229.8120623 512.43261628 228.51792534 512.43769082 227.1845721 512.44291914 C225.74510824 512.44352079 224.30564434 512.44401988 222.86618042 512.44442749 C221.33955305 512.4484428 219.81292675 512.45288113 218.28630173 512.45770705 C214.08466214 512.46967071 209.88303403 512.47532051 205.68138075 512.4798882 C201.15223913 512.48584503 196.62311124 512.49745463 192.09397888 512.50817871 C181.15297966 512.53270015 170.21197589 512.54732912 159.27095765 512.56023878 C156.18089578 512.56395078 153.09083437 512.567924 150.00077295 512.57199144 C130.81282594 512.59722711 111.62487821 512.61928068 92.43691826 512.63171959 C87.99253207 512.63464929 83.5481459 512.63761096 79.10375977 512.640625 C77.9991268 512.64137105 76.89449383 512.6421171 75.75638713 512.64288576 C57.86077 512.65554023 39.9652522 512.68876482 22.06968151 512.73042683 C3.69776431 512.77284732 -14.67410203 512.79641472 -33.04606807 512.80164015 C-43.36170359 512.80505404 -53.67718384 512.81680674 -63.99277115 512.84974289 C-72.77773928 512.87774603 -81.56252031 512.88874152 -90.34752961 512.87754743 C-94.82883547 512.87236156 -99.30974953 512.87524285 -103.79099846 512.90001297 C-107.89705412 512.92251951 -112.00243684 512.92175504 -116.1085044 512.9028091 C-117.59039262 512.90001104 -119.07232661 512.90559693 -120.5541413 512.92062204 C-130.35657589 513.01390286 -138.36070041 512.20051346 -145.77315342 505.30071485 C-153.7373168 496.95891628 -154.06933475 489.23438271 -153.96362305 478.13037109 C-153.96101735 476.7179074 -153.95965722 475.30544094 -153.9594574 473.89297485 C-153.95477764 470.11804138 -153.93082682 466.3434706 -153.90200424 462.56865311 C-153.87995324 459.44175766 -153.86773354 456.31485324 -153.85529232 453.18790722 C-153.81758669 443.92149799 -153.74354359 434.65562029 -153.65506744 425.38957214 C-153.63646161 423.3938812 -153.61966456 421.39817364 -153.60296631 419.40246582 C-153.54803447 412.84036822 -153.47670399 406.2790169 -153.36901855 399.71755981 C-153.33876931 397.83470509 -153.3123688 395.95178388 -153.29016113 394.06881714 C-153.03946632 374.54319055 -150.12061035 357.03592201 -137.63549805 341.29052734 C-136.97807617 340.45650391 -136.3206543 339.62248047 -135.64331055 338.76318359 C-129.79849792 331.81577811 -121.95594507 324.64084433 -113.3034668 321.42333984 C-111.31924922 320.35383581 -111.31924922 320.35383581 -111.01831055 317.53271484 C-110.93323242 316.42154297 -110.8481543 315.31037109 -110.76049805 314.16552734 C-109.94552278 307.75202636 -108.4154662 303.70113432 -103.63549805 299.29052734 C-98.71014432 295.7217329 -94.22148965 294.15950565 -88.17138672 294.2121582 C-87.04625168 294.21769211 -85.92111664 294.22322601 -84.7618866 294.22892761 C-82.9262188 294.24201714 -82.9262188 294.24201714 -81.0534668 294.25537109 C-38.32072332 296.53748275 -38.32072332 296.53748275 0.5246582 282.95068359 C3.52946481 278.60615429 3.34924608 274.89092202 3.17700195 269.73974609 C1.74417231 263.65710871 -2.57217148 261.43840193 -7.63549805 258.29052734 C-12.9560589 254.16866992 -17.39298825 249.50325767 -21.63549805 244.29052734 C-22.34834961 243.41525391 -23.06120117 242.53998047 -23.7956543 241.63818359 C-36.45472686 225.46149567 -43.05683168 208.94891657 -43.63549805 188.29052734 C-44.83174805 188.20802734 -46.02799805 188.12552734 -47.26049805 188.04052734 C-52.67676126 187.35153273 -55.99277558 184.93324981 -59.82299805 181.10302734 C-64.18315138 174.33727217 -65.42967108 166.16541708 -66.82299805 158.35302734 C-67.08886719 156.96567383 -67.08886719 156.96567383 -67.36010742 155.55029297 C-68.98117631 146.61876669 -70.21053821 137.53584227 -65.63549805 129.29052734 C-64.9641835 128.56816391 -64.29286896 127.84580048 -63.60121155 127.10154724 C-61.1594423 123.60975561 -61.13662497 121.65884057 -61.13720703 117.42749023 C-61.13168823 116.75674469 -61.12616943 116.08599915 -61.1204834 115.39492798 C-61.11118731 113.94360842 -61.11103852 112.49220727 -61.11907768 111.0408802 C-61.13177364 108.73008694 -61.12035383 106.42047728 -61.1030426 104.10972595 C-61.07090945 99.19077216 -61.07131493 94.27206556 -61.07299805 89.35302734 C-61.07048385 83.67820477 -61.05421176 78.00373995 -61.01655769 72.32903862 C-61.00686638 70.07698973 -61.01536534 67.82553656 -61.0252533 65.57350159 C-61.00706041 53.48890849 -59.68712352 41.72745417 -53.88549805 30.91552734 C-53.53334229 30.24199219 -53.18118652 29.56845703 -52.81835938 28.87451172 C-45.23078192 14.79524538 -32.41986585 5.927592 -17.25016785 1.24569702 C-11.54740803 -0.1461917 -5.83987809 -0.00453794 0 0 Z " fill="#010101" transform="translate(153.635498046875,-0.29052734375)"/>
<path d="M0 0 C1.15230606 -0.00779995 2.30461212 -0.01559991 3.49183655 -0.02363622 C6.68645507 -0.04012905 9.88012366 -0.03419485 13.07471848 -0.01870513 C16.52129931 -0.00739586 19.96775136 -0.02485214 23.41430664 -0.03860474 C30.16452246 -0.06084641 36.91446042 -0.05603196 43.66468716 -0.04154153 C49.15034199 -0.03025288 54.63591892 -0.02871675 60.12158203 -0.03416061 C60.90211284 -0.03492678 61.68264364 -0.03569294 62.4868269 -0.03648233 C64.07242459 -0.03808094 65.65802227 -0.03970201 67.24361992 -0.04134528 C82.11433094 -0.0556055 96.9848879 -0.03920584 111.85557365 -0.01234345 C124.6173346 0.00999562 137.37886816 0.00611556 150.140625 -0.01693726 C164.95784754 -0.0436905 179.77493502 -0.05423218 194.59217834 -0.03887594 C196.17196653 -0.03728318 197.75175474 -0.03571133 199.33154297 -0.03416061 C200.49749386 -0.03300355 200.49749386 -0.03300355 201.68699932 -0.03182311 C207.1665286 -0.02750467 212.64597226 -0.03479573 218.12548828 -0.04655838 C224.8026023 -0.06057669 231.47942241 -0.05679784 238.15650272 -0.03015466 C241.56381978 -0.01700706 244.97064669 -0.01187929 248.37796021 -0.02840042 C252.07017484 -0.04201045 255.76099957 -0.02499198 259.453125 0 C261.07203392 -0.01673041 261.07203392 -0.01673041 262.72364807 -0.03379881 C267.48089364 0.02890756 269.94896412 0.08485152 273.9103241 2.88708496 C275.81267064 5.76519341 276.30718954 6.86218803 276.05981445 10.23516846 C275.98213081 11.56442636 275.98213081 11.56442636 275.90287781 12.92053795 C275.82020157 13.87509691 275.73752533 14.82965588 275.65234375 15.81314087 C275.58590164 16.82540049 275.51945953 17.8376601 275.45100403 18.88059425 C275.30613062 21.03871346 275.14929736 23.19605773 274.98150635 25.35251617 C274.73435382 28.53460497 274.51873133 31.71712079 274.31396484 34.90219116 C273.88157767 41.53182989 273.39905307 48.15739116 272.9140625 54.78335571 C272.73820869 57.22080237 272.56267843 59.65827238 272.38745117 62.09576416 C271.93032276 68.44479461 271.46952663 74.7935529 271.00769043 81.14224243 C270.26798047 91.31895557 269.53383327 101.49607113 268.79995728 111.67320633 C268.54582505 115.18977852 268.29001927 118.7062257 268.03393555 122.22265625 C267.95454239 123.32220453 267.87514923 124.42175282 267.79335022 125.55462074 C267.63927815 127.67718376 267.4825759 129.79955784 267.32298279 131.92171288 C266.98162576 136.55223666 266.68743002 141.16756322 266.56787109 145.80953979 C266.529524 146.98643844 266.529524 146.98643844 266.49040222 148.18711281 C266.43091173 150.23065521 266.39908569 152.2749534 266.36987305 154.31915283 C265.51396248 158.73070591 264.32465789 159.942406 260.7265625 162.63491821 C257.22444859 163.37478342 253.78102254 163.30958164 250.21240234 163.26983643 C249.14176733 163.27763638 248.07113232 163.28543633 246.96805382 163.29347265 C243.37418768 163.31344437 239.78137433 163.29760673 236.1875 163.28189087 C233.61362081 163.28866463 231.03974647 163.29756639 228.46588135 163.30844116 C222.19692803 163.33067799 215.92827397 163.3258706 209.65930891 163.31137796 C204.56457532 163.30008738 199.46992562 163.29855401 194.37518311 163.30399704 C193.65015952 163.3047632 192.92513594 163.30552937 192.17814195 163.30631875 C190.70528425 163.30791737 189.23242658 163.30953844 187.75956893 163.31118171 C173.94755578 163.3254405 160.13570854 163.30904452 146.3237226 163.28217988 C134.47159135 163.25984092 122.61970495 163.26372101 110.76757812 163.28677368 C97.00510692 163.31352947 83.24278113 163.32406719 69.48028755 163.30871236 C68.01283902 163.30711961 66.54539047 163.30554776 65.07794189 163.30399704 C63.99491431 163.30283997 63.99491431 163.30283997 62.89000738 163.30165953 C57.80120884 163.29734185 52.71250252 163.30463052 47.62371826 163.31639481 C40.77491078 163.33187984 33.92657396 163.32086005 27.07781219 163.29192352 C24.56110148 163.28530022 22.04435192 163.28723144 19.52765656 163.29823685 C16.09814839 163.31185363 12.67013497 163.2948209 9.24072266 163.26983643 C7.73854218 163.28656684 7.73854218 163.28656684 6.20601463 163.30363524 C1.68553192 163.23953517 -0.59236613 163.1127886 -4.36926556 160.46274567 C-6.49378113 157.30769264 -6.99909431 155.52402102 -7.25434875 151.75476074 C-7.34536362 150.57738846 -7.43637848 149.40001617 -7.53015137 148.18696594 C-7.64344788 146.26217155 -7.64344788 146.26217155 -7.7590332 144.29849243 C-7.85631743 142.92631633 -7.95562862 141.55428266 -8.05680847 140.18238831 C-8.3253122 136.46220004 -8.56515703 132.74065697 -8.79969811 129.01819372 C-9.05044613 125.11312191 -9.32689779 121.20986838 -9.60038757 117.30633545 C-10.05648084 110.74527198 -10.49573072 104.1832646 -10.9230957 97.62026978 C-11.52388024 88.39458457 -12.15521594 79.17117978 -12.79263175 69.94796348 C-13.28837633 62.75809021 -13.77564516 55.5676383 -14.26171875 48.37710571 C-14.31355702 47.61166742 -14.36539528 46.84622912 -14.41880441 46.05759573 C-14.71779921 41.63546166 -15.01246632 37.21307588 -15.30088997 32.79023933 C-15.42972363 30.82535301 -15.56197482 28.86069167 -15.69436646 26.89604187 C-15.91459249 23.47653346 -16.09879643 20.05701116 -16.2734375 16.63491821 C-16.34831076 15.5981406 -16.42318401 14.56136299 -16.50032616 13.49316788 C-16.5458745 12.52699413 -16.59142284 11.56082039 -16.63835144 10.56536865 C-16.68879199 9.72978487 -16.73923254 8.89420109 -16.79120159 8.03329659 C-14.90417136 -0.70777405 -7.21880622 -0.07460185 0 0 Z " fill="#F1F1F1" transform="translate(74.2734375,308.3650817871094)"/>
<path d="M0 0 C20.83631255 -0.09352562 41.67259038 -0.16401954 62.5090704 -0.20724869 C72.18425967 -0.22785607 81.85931837 -0.25594176 91.53442383 -0.30175781 C99.96924938 -0.34168146 108.40398035 -0.36744607 116.83889776 -0.37635398 C121.3033463 -0.38155938 125.76752426 -0.3937558 130.23188591 -0.42292023 C134.43849035 -0.45017679 138.64471411 -0.45842443 142.85139847 -0.45243073 C144.39085652 -0.4535264 145.93032801 -0.46141928 147.4697094 -0.4768219 C157.24986621 -0.56983592 164.96528009 -0.02777593 172.8125 6.25 C178.41484705 13.29295057 179.5887982 19.21965069 179.51757812 28.12255859 C179.5245874 29.20981735 179.53159668 30.29707611 179.53881836 31.4172821 C179.55635522 34.99459737 179.54478849 38.57111483 179.53125 42.1484375 C179.53394652 44.64653677 179.53783028 47.14463502 179.54284668 49.64273071 C179.54948923 55.54158575 179.53553614 61.44015397 179.5142436 67.33896697 C179.49924001 72.02817753 179.5045275 76.71705197 179.52148438 81.40625 C179.54473461 87.89298829 179.54827601 94.37940312 179.53526306 100.86616898 C179.53260409 103.33080752 179.53583615 105.79545999 179.54518127 108.26008224 C179.55540055 111.71330528 179.53976815 115.16550502 179.51757812 118.61865234 C179.52567505 119.62676468 179.53377197 120.63487701 179.54211426 121.67353821 C179.45543985 128.99663555 178.30793838 136.31815961 173.25006866 141.94772911 C168.21564096 146.57853065 163.62094146 148.27895515 156.7512207 148.09667969 C155.50834793 148.07136169 154.26547516 148.0460437 152.98493958 148.0199585 C152.32456003 148.00305717 151.66418049 147.98615585 150.98378944 147.96874237 C147.43429525 147.88790914 143.88422966 147.87334235 140.33398438 147.84765625 C135.83914077 147.81226509 131.34740293 147.75841316 126.85424805 147.62646484 C104.47854799 146.78159026 104.47854799 146.78159026 85.45600891 157.50665283 C84.23504028 158.71474525 83.02940852 159.93856802 81.84091187 161.17861938 C78.65561599 164.3301207 75.03664192 166.90759268 71.4375 169.5625 C70.03738605 170.62800901 68.63873958 171.69545174 67.2421875 172.765625 C65.08415656 174.41146188 62.92563176 176.05664603 60.76660156 177.70117188 C58.53121361 179.40404847 56.29668707 181.10804823 54.0625 182.8125 C53.35399902 183.35229492 52.64549805 183.89208984 51.91552734 184.44824219 C47.12530098 188.10836801 42.42005989 191.85123663 37.78515625 195.70703125 C36 197 36 197 34 197 C35.65399057 189.51309584 37.34936934 182.03608459 39.0625 174.5625 C39.33126953 173.37978516 39.60003906 172.19707031 39.87695312 170.97851562 C40.13541016 169.85251953 40.39386719 168.72652344 40.66015625 167.56640625 C40.89355713 166.54490479 41.12695801 165.52340332 41.36743164 164.47094727 C42 162 42 162 43 160 C43.52298191 155.05659442 43.52298191 155.05659442 41.33013916 150.80755615 C38.46559856 148.58544939 37.00015348 148.48648787 33.40527344 148.45410156 C32.28441345 148.43438293 31.16355347 148.41466431 30.00872803 148.39434814 C28.20229828 148.39250519 28.20229828 148.39250519 26.359375 148.390625 C25.12205627 148.37408875 23.88473755 148.35755249 22.60992432 148.34051514 C19.32848469 148.30017615 16.0475037 148.27685239 12.76586914 148.26177979 C9.41404159 148.24219329 6.06258686 148.19989103 2.7109375 148.16015625 C-3.85934333 148.08615328 -10.42940891 148.03665073 -17 148 C-17 143.71 -17 139.42 -17 135 C-15.63875 134.7525 -14.2775 134.505 -12.875 134.25 C-7.15209202 132.94729724 -3.41315321 131.04644495 -0.00390625 126.109375 C2.77393845 121.0541568 3.68686797 115.55535325 4.75 109.9375 C4.96245361 108.82366943 5.17490723 107.70983887 5.39379883 106.56225586 C8.51976052 90.00463508 8.51976052 90.00463508 2.41015625 74.79296875 C1.12311556 73.08355965 1.12311556 73.08355965 0 72 C-0.09436529 69.76070114 -0.11742327 67.5183825 -0.11352539 65.27709961 C-0.11367142 64.5746965 -0.11381744 63.8722934 -0.1139679 63.14860535 C-0.11326872 60.81648722 -0.10547617 58.484448 -0.09765625 56.15234375 C-0.09579208 54.53951562 -0.09436818 52.92668693 -0.09336853 51.31385803 C-0.08954323 47.06084643 -0.07971285 42.80786876 -0.06866455 38.55487061 C-0.05845069 34.2182257 -0.05387096 29.88157533 -0.04882812 25.54492188 C-0.03809059 17.02993231 -0.02101403 8.51497037 0 0 Z " fill="#87DAFB" transform="translate(318,52)"/>
<path d="M0 0 C2.08960392 -0.00966514 4.17820682 -0.04066833 6.26757812 -0.07226562 C7.60611397 -0.07880015 8.94465684 -0.08404886 10.28320312 -0.08789062 C11.49588867 -0.09723633 12.70857422 -0.10658203 13.95800781 -0.11621094 C19.78839993 0.49443271 24.02827021 3.59697485 28.79882812 6.80273438 C36.82158219 11.91400511 43.92732478 13.17417706 53.36132812 12.24023438 C60.67249762 10.5767939 66.40157556 7.18456149 72.36523438 2.72851562 C77.2954519 -0.94743913 83.09176385 -0.02114271 89 -0.05493164 C91.0898686 -0.07208944 93.17813146 -0.11596781 95.26757812 -0.16015625 C96.6061082 -0.17028873 97.94465169 -0.1788031 99.28320312 -0.18554688 C101.10223145 -0.20742065 101.10223145 -0.20742065 102.95800781 -0.22973633 C108.23840371 0.49944316 111.04608728 2.89619263 114.70263672 6.6328125 C117.30023945 12.28223521 116.92452538 17.81459487 116.90039062 23.95898438 C116.91030884 25.30368643 116.92225436 26.64837491 116.93612671 27.99304199 C116.96839803 31.52201134 116.97887212 35.05067059 116.98297119 38.57977295 C116.99174614 44.22716947 117.02741332 49.87431233 117.07514572 55.52149963 C117.08766201 57.48560936 117.08639391 59.44979142 117.08486938 61.41394043 C117.09182831 62.61538696 117.09878723 63.8168335 117.10595703 65.0546875 C117.10721588 66.10692505 117.10847473 67.1591626 117.10977173 68.24328613 C117.39050967 71.58789236 117.9564567 74.18654731 119.36132812 77.24023438 C121.27062126 78.37666665 121.27062126 78.37666665 123.48632812 78.61523438 C124.76507813 78.82148438 126.04382813 79.02773437 127.36132812 79.24023438 C127.4894624 86.63750431 127.57623142 94.03448196 127.63598633 101.43261719 C127.66093058 103.94249159 127.69489845 106.45229488 127.73852539 108.96191406 C128.21932226 137.35721134 121.9365285 156.39090689 101.86132812 177.17773438 C91.42530201 187.62382577 78.79015423 195.26619387 65.36132812 201.24023438 C64.25337891 201.77970703 64.25337891 201.77970703 63.12304688 202.33007812 C53.05030246 206.57432189 39.16287395 205.47815296 29.22070312 201.56445312 C15.23060256 195.08543114 3.55331571 186.79527957 -7.63867188 176.24023438 C-8.40050781 175.55445313 -9.16234375 174.86867187 -9.94726562 174.16210938 C-21.4420222 163.40445157 -32.06102179 146.55367246 -32.75892639 130.46865845 C-32.75670578 129.52267792 -32.75448517 128.57669739 -32.75219727 127.60205078 C-32.75212173 126.52138336 -32.7520462 125.44071594 -32.75196838 124.32730103 C-32.7468071 123.17708466 -32.74164581 122.02686829 -32.73632812 120.84179688 C-32.73491318 119.65170013 -32.73349823 118.46160339 -32.73204041 117.23544312 C-32.72645608 113.44534765 -32.71390638 109.6553119 -32.70117188 105.86523438 C-32.69615485 103.29101648 -32.6915923 100.71679766 -32.6875 98.14257812 C-32.67649177 91.8417766 -32.65976918 85.54100976 -32.63867188 79.24023438 C-30.91341146 78.62174479 -29.18815104 78.00325521 -27.46289062 77.38476562 C-24.84534204 75.7424921 -23.93640806 74.02765857 -22.63867188 71.24023438 C-22.21768328 68.29149344 -22.21768328 68.29149344 -22.31738281 65.1081543 C-22.3201825 63.89306686 -22.32298218 62.67797943 -22.3258667 61.42607117 C-22.34143616 60.12079971 -22.35700562 58.81552826 -22.37304688 57.47070312 C-22.3739752 56.10695866 -22.37257433 54.74321081 -22.36895752 53.37947083 C-22.35632817 47.60548813 -22.37312159 41.83208276 -22.42919922 36.05834961 C-22.46201937 32.51842343 -22.46052146 28.97983154 -22.43817902 25.43984413 C-22.43560126 23.45017689 -22.47102512 21.46057607 -22.50726318 19.47123718 C-22.45809932 13.33365342 -22.30332604 9.19960255 -18.21386719 4.41723633 C-12.78716324 -0.8671682 -7.17676316 0.02010298 0 0 Z " fill="#FBC08A" transform="translate(158.638671875,64.759765625)"/>
<path d="M0 0 C1.01894852 -0.00571014 2.03789703 -0.01142029 3.08772278 -0.01730347 C4.19482605 -0.01842133 5.30192932 -0.01953918 6.44258118 -0.02069092 C8.2044854 -0.02813828 8.2044854 -0.02813828 10.00198364 -0.03573608 C13.2171384 -0.04781988 16.43225685 -0.05529664 19.64743018 -0.05974674 C21.66016717 -0.06268533 23.67289855 -0.06679165 25.68563271 -0.07125092 C31.99462343 -0.08491572 38.30360125 -0.0945867 44.61260575 -0.09845281 C51.87357272 -0.10292776 59.13435091 -0.12045363 66.39526051 -0.1494534 C72.02180188 -0.1711384 77.64829041 -0.18116075 83.27487308 -0.18249393 C86.62871111 -0.18353733 89.9822308 -0.19081266 93.33605003 -0.20731354 C97.08394397 -0.22443552 100.83138236 -0.2224783 104.57929993 -0.21600342 C106.2247731 -0.22982559 106.2247731 -0.22982559 107.90348816 -0.243927 C120.82641813 -0.17425957 131.38257541 3.96688286 141.02192688 12.64044189 C148.99114247 21.0145973 152.96849976 31.72999452 152.94795227 43.1338501 C152.9480983 43.81733017 152.94824432 44.50081024 152.94839478 45.20500183 C152.9477015 47.45044191 152.93993662 49.69579767 152.93208313 51.94122314 C152.93021687 53.5034938 152.92879395 55.06576505 152.92779541 56.6280365 C152.9239866 60.72974274 152.91417034 64.83141328 152.90309143 68.93310547 C152.89284208 73.12265541 152.88829025 77.31221114 152.883255 81.50177002 C152.87254655 89.71467698 152.85548985 97.92755499 152.83442688 106.14044189 C152.14735657 106.34540283 151.46028625 106.55036377 150.75239563 106.76153564 C149.85134094 107.03094971 148.95028625 107.30036377 148.02192688 107.57794189 C147.12860657 107.84477783 146.23528625 108.11161377 145.31489563 108.38653564 C143.47969633 108.94432063 141.65408962 109.53388765 139.83442688 110.14044189 C139.82856064 109.52149551 139.8226944 108.90254913 139.81665039 108.2648468 C139.75244853 101.79136323 139.66796098 95.31836452 139.57197571 88.84527588 C139.53883213 86.43323176 139.5107677 84.02111205 139.48799133 81.60894775 C139.45425116 78.13083855 139.40192426 74.65341545 139.34614563 71.17559814 C139.33656075 69.57193138 139.33656075 69.57193138 139.32678223 67.93586731 C139.1475728 58.69771504 137.47896639 49.98995435 130.83442688 43.14044189 C124.23279474 38.09213496 118.1541288 35.83052876 109.82270813 35.76934814 C109.05444199 35.76031967 108.28617584 35.7512912 107.49462891 35.74198914 C105.87168753 35.7275209 104.24868828 35.71860843 102.62568665 35.71490479 C100.17144892 35.70306024 97.71977144 35.6538913 95.2660675 35.60333252 C86.32764511 35.51058669 79.43942812 35.89855998 71.83442688 41.14044189 C70.90888 41.72309814 69.98333313 42.30575439 69.02973938 42.90606689 C68.34653625 43.39591064 67.66333313 43.88575439 66.95942688 44.39044189 C62.02144019 47.9253844 57.93237594 48.730566 51.83442688 48.14044189 C46.27602722 45.98678543 41.28563958 43.05020551 36.69770813 39.25372314 C29.77467212 35.11731798 21.52484351 35.76812817 13.75654602 35.76983643 C11.53757885 35.76547268 9.32062022 35.72911454 7.102005 35.69122314 C-2.62526387 35.61454345 -12.29146797 36.43646611 -19.79859924 43.42858887 C-26.24478311 51.50110551 -28.05379786 59.82553715 -27.97026062 69.90606689 C-27.98396698 71.06547791 -27.99767334 72.22488892 -28.01179504 73.41943359 C-28.04880934 77.07684146 -28.04539904 80.73287478 -28.04057312 84.39044189 C-28.0587197 86.88916077 -28.07952849 89.3878618 -28.10307312 91.88653564 C-28.15465643 97.97130452 -28.17316899 104.05547416 -28.16557312 110.14044189 C-28.76885437 109.93548096 -29.37213562 109.73052002 -29.99369812 109.51934814 C-30.79291687 109.24993408 -31.59213562 108.98052002 -32.41557312 108.70294189 C-33.20447937 108.43610596 -33.99338562 108.16927002 -34.80619812 107.89434814 C-36.913793 107.22089481 -39.01311285 106.64893595 -41.16557312 106.14044189 C-41.2820138 96.96016356 -41.37056294 87.78014391 -41.42463398 78.59928513 C-41.45060061 74.33506725 -41.4857578 70.07135884 -41.54277039 65.80743408 C-41.59755756 61.68359707 -41.62709061 57.5602465 -41.63995934 53.4360733 C-41.64911632 51.87174077 -41.66699533 50.30743138 -41.6942234 48.74330902 C-41.93459949 34.34721156 -38.58570028 23.12107726 -28.79057312 12.20294189 C-21.17186483 4.74205995 -10.6648103 0.03596553 0 0 Z " fill="#416074" transform="translate(150.1655731201172,14.85955810546875)"/>
<path d="M0 0 C2.0898686 -0.0171578 4.17813146 -0.06103617 6.26757812 -0.10522461 C7.6061082 -0.11535709 8.94465169 -0.12387146 10.28320312 -0.13061523 C12.10223145 -0.15248901 12.10223145 -0.15248901 13.95800781 -0.17480469 C19.23840371 0.5543748 22.04608728 2.95112427 25.70263672 6.68774414 C28.30023945 12.33716685 27.92452538 17.86952651 27.90039062 24.01391602 C27.91030884 25.35861807 27.92225436 26.70330656 27.93612671 28.04797363 C27.96839803 31.57694298 27.97887212 35.10560223 27.98297119 38.63470459 C27.99174614 44.28210111 28.02741332 49.92924397 28.07514572 55.57643127 C28.08766201 57.540541 28.08639391 59.50472306 28.08486938 61.46887207 C28.09182831 62.6703186 28.09878723 63.87176514 28.10595703 65.10961914 C28.10721588 66.16185669 28.10847473 67.21409424 28.10977173 68.29821777 C28.39050967 71.642824 28.9564567 74.24147895 30.36132812 77.29516602 C32.27062126 78.43159829 32.27062126 78.43159829 34.48632812 78.67016602 C35.76507813 78.87641602 37.04382813 79.08266602 38.36132812 79.29516602 C38.4894624 86.69243595 38.57623142 94.08941361 38.63598633 101.48754883 C38.66093058 103.99742323 38.69489845 106.50722652 38.73852539 109.0168457 C39.21932226 137.41214298 32.9365285 156.44583853 12.86132812 177.23266602 C2.42530201 187.67875741 -10.20984577 195.32112551 -23.63867188 201.29516602 C-24.74662109 201.83463867 -24.74662109 201.83463867 -25.87695312 202.38500977 C-35.66202368 206.50803949 -49.31348649 205.50432434 -59.08398438 201.95141602 C-59.59703125 201.73485352 -60.11007813 201.51829102 -60.63867188 201.29516602 C-57.32422208 198.59957219 -53.94289685 196.0678622 -50.45117188 193.60766602 C-30.11732783 178.83428334 -14.07665151 159.24511251 -8.63867188 134.29516602 C-8.25875387 130.71112152 -8.22687998 127.17167637 -8.25048828 123.56982422 C-8.24260284 122.05514809 -8.24260284 122.05514809 -8.23455811 120.50987244 C-8.22146436 117.20506853 -8.23006189 113.90075523 -8.24023438 110.59594727 C-8.23820981 108.27345183 -8.23529519 105.95095702 -8.23153687 103.62846375 C-8.22712718 98.77096478 -8.233498 93.91363191 -8.24755859 89.05615234 C-8.26460151 82.8710946 -8.25483139 76.6864289 -8.2368412 70.50138569 C-8.22592578 65.70628484 -8.22948587 60.91127468 -8.23722458 56.11617088 C-8.2392077 53.83791239 -8.23683473 51.55964532 -8.22978592 49.28139687 C-8.18916646 32.45752965 -9.80254056 17.48420135 -14.63867188 1.29516602 C-10.37020018 -0.83906983 -4.73724482 0.02709209 0 0 Z " fill="#E9AA64" transform="translate(247.638671875,64.704833984375)"/>
<path d="M0 0 C35.83998687 -0.11440031 71.67994177 -0.20252593 107.52007357 -0.25532665 C111.74962943 -0.26158031 115.97918492 -0.26805191 120.20874023 -0.2746582 C121.05078205 -0.27596976 121.89282386 -0.27728131 122.76038209 -0.2786326 C136.40143095 -0.30039964 150.04237464 -0.33982828 163.68336108 -0.38576398 C177.67632221 -0.43249257 191.6692282 -0.46028777 205.66226417 -0.47044247 C214.29941635 -0.47730913 222.93627129 -0.4990102 231.57333199 -0.53958233 C237.49304589 -0.56597634 243.41260574 -0.57400862 249.33237424 -0.56750689 C252.74982233 -0.5642987 256.16675041 -0.56927672 259.58410645 -0.59602737 C263.28746238 -0.62080074 266.98953295 -0.61496081 270.69291687 -0.60127258 C271.77560008 -0.61583679 272.85828329 -0.630401 273.97377509 -0.64540654 C278.74115099 -0.59757657 281.21397028 -0.55514512 285.18586445 2.2500639 C287.08515214 5.12907688 287.58056565 6.22810681 287.33325195 9.60025024 C287.25556831 10.92950814 287.25556831 10.92950814 287.17631531 12.28561974 C287.09363907 13.2401787 287.01096283 14.19473766 286.92578125 15.17822266 C286.85933914 16.19048227 286.79289703 17.20274189 286.72444153 18.24567604 C286.57956812 20.40379525 286.42273486 22.56113952 286.25494385 24.71759796 C286.00779132 27.89968676 285.79216883 31.08220258 285.58740234 34.26727295 C285.15501517 40.89691168 284.67249057 47.52247295 284.1875 54.1484375 C284.01164619 56.58588415 283.83611593 59.02335417 283.66088867 61.46084595 C283.20376026 67.8098764 282.74296413 74.15863469 282.28112793 80.50732422 C281.54141797 90.68403735 280.80727077 100.86115291 280.07339478 111.03828812 C279.81926255 114.55486031 279.56345677 118.07130749 279.30737305 121.58773804 C279.22797989 122.68728632 279.14858673 123.7868346 279.06678772 124.91970253 C278.91271565 127.04226555 278.7560134 129.16463962 278.59642029 131.28679466 C278.25506326 135.91731844 277.96086752 140.53264501 277.84130859 145.17462158 C277.8029615 146.35152022 277.8029615 146.35152022 277.76383972 147.5521946 C277.70434923 149.595737 277.67252319 151.64003519 277.64331055 153.68423462 C276.82248378 157.91495801 275.39408029 159.41200265 272 162 C269.804245 162.60127258 269.804245 162.60127258 267.5769043 162.56762695 C266.73641037 162.5672493 265.89591644 162.56687164 265.029953 162.56648254 C264.1370607 162.54067612 263.2441684 162.51486969 262.32421875 162.48828125 C260.93648003 162.47766914 260.93648003 162.47766914 259.52070618 162.46684265 C256.57546997 162.43892815 253.63215827 162.37619557 250.6875 162.3125 C248.68687648 162.2874133 246.68622306 162.26460078 244.68554688 162.24414062 C239.78962684 162.18911108 234.89513932 162.10285901 230 162 C229.60479164 148.90610915 230.67600184 135.92406555 231.66676331 122.87586403 C231.97470949 118.81596255 232.27550708 114.75558915 232.57409668 110.69499207 C233.31695834 100.6107701 234.07075358 90.52736948 234.82794189 80.44421387 C235.41714228 72.59682783 236.00290515 64.74921651 236.5787034 56.90083426 C236.92059864 52.24641437 237.27325355 47.59288358 237.62780762 42.93940735 C237.81026877 40.46199834 237.9922971 37.98455741 238.17382812 35.50708008 C238.25798477 34.43370895 238.34214142 33.36033783 238.42884827 32.25444031 C239.15583436 22.10157841 239 12.27548632 239 2 C160.13 1.67 81.26 1.34 0 1 C0 0.67 0 0.34 0 0 Z " fill="#CAD3DC" transform="translate(63,309)"/>
<path d="M0 0 C20.83631255 -0.09352562 41.67259038 -0.16401954 62.5090704 -0.20724869 C72.18425967 -0.22785607 81.85931837 -0.25594176 91.53442383 -0.30175781 C99.96924938 -0.34168146 108.40398035 -0.36744607 116.83889776 -0.37635398 C121.3033463 -0.38155938 125.76752426 -0.3937558 130.23188591 -0.42292023 C134.43849035 -0.45017679 138.64471411 -0.45842443 142.85139847 -0.45243073 C144.39085652 -0.4535264 145.93032801 -0.46141928 147.4697094 -0.4768219 C157.24986621 -0.56983592 164.96528009 -0.02777593 172.8125 6.25 C178.41484705 13.29295057 179.5887982 19.21965069 179.51757812 28.12255859 C179.5245874 29.20981735 179.53159668 30.29707611 179.53881836 31.4172821 C179.55635522 34.99459737 179.54478849 38.57111483 179.53125 42.1484375 C179.53394652 44.64653677 179.53783028 47.14463502 179.54284668 49.64273071 C179.54948923 55.54158575 179.53553614 61.44015397 179.5142436 67.33896697 C179.49924001 72.02817753 179.5045275 76.71705197 179.52148438 81.40625 C179.54473461 87.89298829 179.54827601 94.37940312 179.53526306 100.86616898 C179.53260409 103.33080752 179.53583615 105.79545999 179.54518127 108.26008224 C179.55540055 111.71330528 179.53976815 115.16550502 179.51757812 118.61865234 C179.52567505 119.62676468 179.53377197 120.63487701 179.54211426 121.67353821 C179.45543985 128.99663555 178.30793838 136.31815961 173.25006866 141.94772911 C167.28378443 147.43567726 161.84121468 148.29339778 153.98046875 148.1953125 C153.12189774 148.1924826 152.26332672 148.18965271 151.3787384 148.18673706 C148.64818125 148.1755807 145.9179573 148.15048459 143.1875 148.125 C141.33138496 148.11496432 139.47526476 148.1058395 137.61914062 148.09765625 C133.07929954 148.07565626 128.53970619 148.04115781 124 148 C124.33773437 147.49210938 124.67546875 146.98421875 125.0234375 146.4609375 C129.71888539 139.21420579 131.29377869 133.44351749 131.4140625 124.8828125 C131.43342865 124.02565643 131.4527948 123.16850037 131.4727478 122.28536987 C131.53221256 119.56534572 131.57879569 116.84527848 131.625 114.125 C131.6632103 112.27341972 131.70226378 110.42185663 131.7421875 108.5703125 C131.83788664 104.04701575 131.92203906 99.52363584 132 95 C131.40832031 95.3609375 130.81664062 95.721875 130.20703125 96.09375 C129.02173828 96.78984375 129.02173828 96.78984375 127.8125 97.5 C127.03519531 97.9640625 126.25789063 98.428125 125.45703125 98.90625 C122.72665137 100.12168143 120.95591675 100.28959995 118 100 C115.40795847 98.39114664 115.05433138 97.19921507 114.25 94.25 C115.47055372 88.96093388 119.61166583 86.85832859 124 84 C125.3236415 83.2126405 126.65580958 82.43924059 128 81.6875 C131.06826233 80.33039982 131.06826233 80.33039982 132 78 C131.30519531 77.74734375 130.61039063 77.4946875 129.89453125 77.234375 C126.60968382 75.83354938 123.70905137 74.15368804 120.6875 72.25 C119.61886719 71.59515625 118.55023438 70.9403125 117.44921875 70.265625 C115 68 115 68 114.5390625 64.88671875 C115 62 115 62 116.6875 59.5625 C119 58 119 58 121.25 57.9375 C123.82790298 58.93350797 125.84890707 60.08966235 128.171875 61.56640625 C128.88956055 62.02088135 129.60724609 62.47535645 130.34667969 62.94360352 C130.89227539 63.29221436 131.43787109 63.6408252 132 64 C131.95812772 57.20431386 131.88560452 50.40943328 131.79248047 43.61425781 C131.76437903 41.30606366 131.74311105 38.99777522 131.72900391 36.68945312 C131.70742445 33.35758564 131.66069609 30.02683908 131.609375 26.6953125 C131.60753204 25.165009 131.60753204 25.165009 131.60565186 23.60379028 C131.45971681 16.34899997 130.34103953 9.27160551 125.7451086 3.39558887 C123.39347163 1.51495039 121.92445639 1.61640271 118.93171692 1.60127258 C117.88423782 1.58873444 116.83675873 1.57619629 115.75753784 1.5632782 C114.60883209 1.56471329 113.46012634 1.56614838 112.27661133 1.56762695 C111.0667305 1.5574353 109.85684967 1.54724365 108.61030579 1.53674316 C105.29227857 1.51170408 101.97469425 1.49988318 98.65661073 1.49388909 C95.18919199 1.48451623 91.72190183 1.4583138 88.25456238 1.43388367 C81.6885674 1.39018485 75.12259732 1.36165876 68.55650109 1.33856028 C61.08128834 1.31152666 53.60620471 1.26761409 46.13108408 1.22227156 C30.75412239 1.1293769 15.37713639 1.05771835 0 1 C0 0.67 0 0.34 0 0 Z " fill="#59BCE5" transform="translate(318,52)"/>
<path d="M0 0 C15.20572143 7.47704505 24.53528906 19.03491473 30 35 C31.09054755 39.36366794 31.20775987 43.68363345 31.29711914 48.15722656 C31.31677231 48.96636002 31.33642548 49.77549347 31.35667419 50.60914612 C31.4205291 53.28622416 31.47797646 55.96339668 31.53515625 58.640625 C31.57826354 60.52415656 31.62168016 62.40768106 31.66539001 64.29119873 C31.75635137 68.25218117 31.84427307 72.21321582 31.92993164 76.17431641 C32.03821862 81.17568971 32.15285428 86.17689173 32.26943398 91.1780777 C32.48942327 100.63562547 32.69067099 110.09327529 32.86092567 119.55185699 C32.93142052 123.45979 33.00580353 127.36731778 33.10418701 131.2746582 C33.19077677 134.80286956 33.25388944 138.3305521 33.30859375 141.859375 C33.33856949 142.8214386 33.36854523 143.7835022 33.39942932 144.77471924 C33.45371046 150.72129818 32.49681385 154.14068796 29 159 C24.1914895 162.43564591 19.79813931 162.37500206 14.125 162.1875 C13.34125 162.17396484 12.5575 162.16042969 11.75 162.14648438 C9.83303218 162.11141789 7.91642249 162.05762072 6 162 C6.05800781 161.29875 6.11601562 160.5975 6.17578125 159.875 C6.51175109 152.81003417 5.66230184 148.40519609 1 143 C-2.34482025 139.82670899 -5.88403915 138.02118022 -10 136 C-9.55586113 123.08934244 -8.65137439 110.23466613 -7.56436157 97.36456299 C-6.52661723 85.02277653 -5.60324461 72.67440721 -4.7265625 60.3203125 C-4.67113281 59.53969641 -4.61570312 58.75908031 -4.55859375 57.95480919 C-3.99334432 49.98707706 -3.43258033 42.01903734 -2.87678719 34.05064011 C-2.66494495 31.01883861 -2.451467 27.98715353 -2.23771286 24.9554863 C-2.0898233 22.84833425 -1.94436859 20.7410234 -1.79898071 18.63369751 C-1.35890353 12.39269646 -0.87067166 6.19652592 0 0 Z " fill="#32BAA4" transform="translate(364,335)"/>
<path d="M0 0 C0.0454618 0.63499861 0.0909236 1.26999722 0.13776302 1.9242382 C1.24641292 17.40821035 2.35662374 32.89206968 3.46855068 48.37580681 C4.00624274 55.86376483 4.54341541 63.35175941 5.0793457 70.83984375 C5.54671526 77.36997024 6.01507938 83.90002453 6.48461491 90.42999566 C6.73296481 93.88434909 6.98083217 97.33873556 7.22750664 100.79320908 C7.50356828 104.65896261 7.78185134 108.52455455 8.06030273 112.39013672 C8.18114479 114.08947105 8.18114479 114.08947105 8.3044281 115.82313538 C8.38153015 116.88865128 8.4586322 117.95416718 8.53807068 119.05197144 C8.64288411 120.55718164 8.64288411 120.55718164 8.74981499 122.09280014 C8.91664076 124.03134897 9.13629149 125.96606873 9.40809822 127.89270401 C9.53257269 128.78373699 9.65704716 129.67476997 9.78529358 130.59280396 C9.97487688 131.75993266 9.97487688 131.75993266 10.16829014 132.95063972 C10 135 10 135 8.34032345 136.75030327 C6.96597959 137.71162392 5.56440358 138.63463943 4.14453125 139.52734375 C0.57293749 141.97996824 -1.43396415 144.98958645 -3 149 C-3.64982735 152.67103957 -3.92468459 156.2753105 -4 160 C-6.70942393 160.10861833 -9.414439 160.18758577 -12.125 160.25 C-12.88554688 160.28351563 -13.64609375 160.31703125 -14.4296875 160.3515625 C-19.76261087 160.44350945 -22.87517681 159.69642909 -27 156 C-30.3938671 150.76796452 -30.36476053 146.40754134 -30.19458008 140.39819336 C-30.18119252 139.47468299 -30.16780497 138.55117262 -30.15401173 137.59967709 C-30.12601122 135.67563661 -30.09222868 133.75167209 -30.05282974 131.82783127 C-29.98802907 128.35922882 -29.97286377 124.89170612 -29.96302319 121.42258549 C-29.93677796 112.40211041 -29.84725581 103.3816862 -29.76428509 94.36158848 C-29.7193703 89.4563253 -29.68008505 84.55115195 -29.65356445 79.64575195 C-29.62736804 74.8297438 -29.58691432 70.01404178 -29.53681374 65.19822502 C-29.5203287 63.38725524 -29.50870166 61.57623346 -29.50238609 59.76519966 C-29.42519878 39.71462524 -26.6693739 23.27057141 -12.28125 8.16796875 C-3.68648649 0 -3.68648649 0 0 0 Z " fill="#32B9A2" transform="translate(45,337)"/>
<path d="M0 0 C1.02824135 -0.00782324 2.0564827 -0.01564648 3.11588287 -0.02370679 C4.81561375 -0.01366855 4.81561375 -0.01366855 6.54968262 -0.00342751 C7.75069359 -0.00810748 8.95170456 -0.01278745 10.1891098 -0.01760924 C13.52878061 -0.02752822 16.86794765 -0.02392708 20.2075882 -0.01465058 C23.8068264 -0.00788029 27.40601966 -0.01833125 31.00524902 -0.02659035 C38.05847653 -0.03995154 45.11160844 -0.03703936 52.16483974 -0.02835242 C57.89558639 -0.02158565 63.62630618 -0.02065479 69.35705566 -0.02392387 C70.57908101 -0.02461342 70.57908101 -0.02461342 71.82579374 -0.0253169 C73.48064996 -0.02627605 75.13550616 -0.02724869 76.79036236 -0.02823468 C92.3190771 -0.03679556 107.84773878 -0.0269435 123.37644482 -0.01083358 C136.70960796 0.00257024 150.04269276 0.00024235 163.37585449 -0.01358986 C178.84784486 -0.02963336 194.31978867 -0.03597152 209.79178619 -0.02675307 C211.44065856 -0.02579739 213.08953094 -0.02485428 214.73840332 -0.02392387 C215.54974464 -0.02346105 216.36108596 -0.02299822 217.19701338 -0.02252137 C222.92289819 -0.01992778 228.64875354 -0.0243104 234.37463379 -0.03136253 C241.34968804 -0.03976409 248.32464097 -0.03752583 255.29968357 -0.0215203 C258.86055136 -0.01361936 262.42125004 -0.01057676 265.9821167 -0.02046776 C269.8367662 -0.0310131 273.69113692 -0.01844785 277.54577637 -0.00342751 C278.67893028 -0.01011967 279.8120842 -0.01681184 280.97957611 -0.02370679 C282.52193813 -0.01197193 282.52193813 -0.01197193 284.09545898 0 C284.98579582 0.00048706 285.87613266 0.00097411 286.7934494 0.00147593 C289.52337866 0.45686879 290.41239474 1.17809035 292.04772949 3.37752342 C292.42272949 5.87752342 292.42272949 5.87752342 292.04772949 8.37752342 C290.41239474 10.5769565 289.52337866 11.29817806 286.7934494 11.75357091 C285.90311256 11.75405797 285.01277573 11.75454503 284.09545898 11.75504684 C283.06721764 11.76287009 282.03897629 11.77069333 280.97957611 11.77875364 C279.27984524 11.76871539 279.27984524 11.76871539 277.54577637 11.75847435 C276.3447654 11.76315432 275.14375443 11.76783429 273.90634918 11.77265608 C270.56667838 11.78257506 267.22751133 11.77897393 263.88787079 11.76969743 C260.28863258 11.76292713 256.68943932 11.77337809 253.09020996 11.78163719 C246.03698245 11.79499839 238.98385054 11.7920862 231.93061924 11.78339927 C226.1998726 11.77663249 220.46915281 11.77570163 214.73840332 11.77897072 C213.51637797 11.77966027 213.51637797 11.77966027 212.26966524 11.78036375 C210.61480903 11.78132289 208.95995282 11.78229553 207.30509663 11.78328152 C191.77638188 11.7918424 176.24772021 11.78199035 160.71901417 11.76588042 C147.38585102 11.7524766 134.05276622 11.7548045 120.71960449 11.7686367 C105.24761413 11.78468021 89.77567031 11.79101836 74.30367279 11.78179991 C72.65480042 11.78084423 71.00592805 11.77990112 69.35705566 11.77897072 C68.54571434 11.77850789 67.73437303 11.77804507 66.89844561 11.77756821 C61.1725608 11.77497463 55.44670544 11.77935724 49.7208252 11.78640938 C42.74577094 11.79481094 35.77081801 11.79257267 28.79577541 11.77656715 C25.23490762 11.76866621 21.67420894 11.7656236 18.11334229 11.7755146 C14.25869278 11.78605995 10.40432207 11.7734947 6.54968262 11.75847435 C5.4165287 11.76516652 4.28337479 11.77185868 3.11588287 11.77875364 C1.57352085 11.76701878 1.57352085 11.76701878 0 11.75504684 C-0.89033684 11.75455979 -1.78067368 11.75407273 -2.69799042 11.75357091 C-5.42791967 11.29817806 -6.31693576 10.5769565 -7.95227051 8.37752342 C-8.32727051 5.87752342 -8.32727051 5.87752342 -7.95227051 3.37752342 C-5.6137625 0.23236194 -3.8198602 0.00208965 0 0 Z " fill="#CAD3DC" transform="translate(63.9522705078125,485.6224765777588)"/>
<path d="M0 0 C7.26123511 4.64333251 12.51409037 9.89726603 15.05859375 18.31640625 C16.35194239 27.63309468 15.07071847 35.98231417 9.36328125 43.5703125 C3.9620222 49.50732397 -1.925129 52.67941866 -9.89453125 53.69140625 C-18.23269749 54.03348487 -24.58211092 51.89235349 -31.69140625 47.69140625 C-38.94807183 40.03159258 -41.3907726 32.31842669 -41.2734375 21.9609375 C-40.56671874 14.20365977 -37.14876528 9.13682048 -31.56640625 3.87890625 C-22.38906771 -3.5682783 -10.8078481 -5.6914723 0 0 Z " fill="#030303" transform="translate(218.94140625,370.68359375)"/>
<path d="M0 0 C17.35938634 -0.49273367 30.66987408 0.33674122 44.1875 12.5 C52.15671559 20.87415541 56.13407288 31.58955263 56.11352539 42.9934082 C56.11367142 43.67688828 56.11381744 44.36036835 56.1139679 45.06455994 C56.11327462 47.31000001 56.10550974 49.55535577 56.09765625 51.80078125 C56.09578999 53.36305191 56.09436707 54.92532315 56.09336853 56.4875946 C56.08955972 60.58930084 56.07974346 64.69097139 56.06866455 68.79266357 C56.0584152 72.98221351 56.05386337 77.17176925 56.04882812 81.36132812 C56.03811967 89.57423509 56.02106297 97.7871131 56 106 C55.31292969 106.20496094 54.62585938 106.40992187 53.91796875 106.62109375 C53.01691406 106.89050781 52.11585938 107.15992187 51.1875 107.4375 C50.29417969 107.70433594 49.40085937 107.97117187 48.48046875 108.24609375 C46.64526945 108.80387873 44.81966274 109.39344575 43 110 C42.99413376 109.38105362 42.98826752 108.76210724 42.98222351 108.12440491 C42.91802165 101.65092133 42.8335341 95.17792263 42.73754883 88.70483398 C42.70440525 86.29278986 42.67634082 83.88067015 42.65356445 81.46850586 C42.61982428 77.99039665 42.56749738 74.51297356 42.51171875 71.03515625 C42.50532883 69.96604507 42.4989389 68.8969339 42.49235535 67.79542542 C42.31314592 58.55727315 40.64453951 49.84951246 34 43 C27.54763663 38.06583977 21.67450816 35.78106394 13.51171875 35.5859375 C12.80852005 35.56657135 12.10532135 35.5472052 11.3808136 35.5272522 C9.14982981 35.46779817 6.91879346 35.42120951 4.6875 35.375 C3.16859814 35.33678863 1.64971722 35.29773508 0.13085938 35.2578125 C-3.57923467 35.16212584 -7.28948651 35.07796928 -11 35 C-11 34.67 -11 34.34 -11 34 C-4.4 34 2.2 34 9 34 C7.37807384 22.81724592 5.49927685 13.37423188 1 3 C0.67 2.01 0.34 1.02 0 0 Z " fill="#2B4354" transform="translate(247,15)"/>
<path d="M0 0 C5.35777893 1.734823 10.55643986 3.78276218 15.78125 5.87890625 C30.9250206 11.15349625 48.04379337 8.1219902 62.3125 1.75 C62.98925781 1.41484375 63.66601562 1.0796875 64.36328125 0.734375 C66 0 66 0 68 0 C68.16435547 1.21236328 68.16435547 1.21236328 68.33203125 2.44921875 C68.49058594 3.51785156 68.64914063 4.58648437 68.8125 5.6875 C68.96332031 6.74324219 69.11414063 7.79898437 69.26953125 8.88671875 C70.02572561 12.10964336 71.23102148 14.23263908 73 17 C73 17.66 73 18.32 73 19 C47.26 19 21.52 19 -5 19 C-3 14 -3 14 -1.9140625 12.015625 C-0.79899517 9.55675857 -0.58696655 7.43490967 -0.375 4.75 C-0.26285156 3.41195313 -0.26285156 3.41195313 -0.1484375 2.046875 C-0.09945312 1.37140625 -0.05046875 0.6959375 0 0 Z " fill="#E3A662" transform="translate(172,275)"/>
<path d="M0 0 C1.75647141 0.00094699 3.51312639 0.03468215 5.26855469 0.09521484 C6.19512878 0.10370453 7.12170288 0.11219421 8.07635498 0.12094116 C11.03223564 0.15449602 13.98537554 0.22977822 16.94042969 0.30615234 C18.94559859 0.33624929 20.9508103 0.36362557 22.95605469 0.38818359 C27.86856705 0.45429422 32.77903394 0.55782989 37.69042969 0.68115234 C35.38083886 3.04975419 33.09948827 5.24642026 30.43261719 7.20458984 C29.81620361 7.6610791 29.19979004 8.11756836 28.56469727 8.58789062 C27.90493896 9.07241699 27.24518066 9.55694336 26.56542969 10.05615234 C20.48608725 14.56660953 14.47011981 19.14832113 8.50292969 23.80615234 C7.75180908 24.39146729 7.00068848 24.97678223 6.22680664 25.57983398 C3.3757077 27.80246655 0.52562387 30.02634874 -2.31933594 32.25683594 C-4.12586595 33.67262772 -5.93607875 35.08357523 -7.74707031 36.49365234 C-8.75640625 37.28384766 -9.76574219 38.07404297 -10.80566406 38.88818359 C-13.30957031 40.68115234 -13.30957031 40.68115234 -16.30957031 41.68115234 C-16.03886719 40.46814453 -15.76816406 39.25513672 -15.48925781 38.00537109 C-14.8654327 35.2047362 -14.2497147 32.40281054 -13.64648438 29.59765625 C-12.92113372 26.22693868 -12.17847955 22.86031851 -11.43457031 19.49365234 C-11.1909375 18.34445313 -10.94730469 17.19525391 -10.69628906 16.01123047 C-10.4475 14.898125 -10.19871094 13.78501953 -9.94238281 12.63818359 C-9.72469238 11.63762939 -9.50700195 10.6370752 -9.28271484 9.60620117 C-7.48295583 4.19653917 -6.06372635 0.43785851 0 0 Z " fill="#58BCE5" transform="translate(368.3095703125,207.31884765625)"/>
<path d="M0 0 C0.66 0.66 1.32 1.32 2 2 C1.6576261 6.14803842 0.53707692 9.43302128 -1.29736328 13.140625 C-1.77521271 14.11604248 -2.25306213 15.09145996 -2.74539185 16.09643555 C-3.52497757 17.65744995 -3.52497757 17.65744995 -4.3203125 19.25 C-4.85719696 20.34030518 -5.39408142 21.43061035 -5.94723511 22.55395508 C-7.66583868 26.03964021 -9.3952713 29.51982441 -11.125 33 C-12.26633511 35.31084733 -13.40696747 37.62204189 -14.546875 39.93359375 C-17.22468864 45.35943644 -19.91443385 50.77924284 -22.60900879 56.19677734 C-23.84450744 58.68664054 -25.07238777 61.18001227 -26.29589844 63.67578125 C-26.78532425 64.66928589 -26.78532425 64.66928589 -27.28463745 65.68286133 C-28.10066517 67.33956815 -28.91353944 68.99782727 -29.72607422 70.65625 C-31 73 -31 73 -33 75 C-35.5 75.25 -35.5 75.25 -38 75 C-40 73 -40 73 -40.31958008 70.29858398 C-39.9350833 66.32995451 -38.71484319 63.76383461 -36.88671875 60.22265625 C-36.39844856 59.26295174 -36.39844856 59.26295174 -35.90031433 58.28385925 C-34.83995362 56.20446322 -33.76365194 54.13376026 -32.6875 52.0625 C-31.58065265 49.89939842 -30.47827613 47.73405816 -29.3762207 45.56851196 C-28.63812535 44.11859749 -27.89870307 42.66935774 -27.15795898 41.22079468 C-23.95464197 34.94840732 -20.88786649 28.61605142 -17.875 22.25 C-17.00927968 20.42960898 -16.14340325 18.60929218 -15.27734375 16.7890625 C-14.88788574 15.96954102 -14.49842773 15.15001953 -14.09716797 14.30566406 C-12.55816839 11.07150473 -11.00906621 7.84350731 -9.4375 4.625 C-8.78587891 3.28308594 -8.78587891 3.28308594 -8.12109375 1.9140625 C-5.96216562 -1.77191235 -3.7384007 -1.02806019 0 0 Z " fill="#030606" transform="translate(421,86)"/>
<path d="M0 0 C2.73921806 1.20159008 3.76316445 2.2450789 5.1015625 4.921875 C5 7.3046875 5 7.3046875 4.1015625 9.921875 C1.7734375 12.0546875 1.7734375 12.0546875 -1.1484375 14.046875 C-2.10234375 14.70945312 -3.05625 15.37203125 -4.0390625 16.0546875 C-6.62471923 17.74313547 -9.23621959 19.35757907 -11.8984375 20.921875 C-10.93744141 21.59283203 -10.93744141 21.59283203 -9.95703125 22.27734375 C-8.1645177 23.53023325 -6.37561215 24.78829634 -4.58984375 26.05078125 C-2.97382437 27.17425481 -1.34033751 28.27399784 0.32421875 29.32421875 C4.93064444 32.28481678 4.93064444 32.28481678 5.7890625 35.484375 C4.88682161 38.68322908 3.78125045 39.96642703 1.1015625 41.921875 C-3.17097371 42.45287171 -5.34561331 41.35903239 -8.83984375 38.96484375 C-9.75314453 38.34673828 -10.66644531 37.72863281 -11.60742188 37.09179688 C-12.54908203 36.43759766 -13.49074219 35.78339844 -14.4609375 35.109375 C-15.40646484 34.46677734 -16.35199219 33.82417969 -17.32617188 33.16210938 C-19.86283268 31.43216049 -22.3902538 29.69284258 -24.8984375 27.921875 C-25.64085693 27.42469971 -26.38327637 26.92752441 -27.14819336 26.4152832 C-28.8984375 24.921875 -28.8984375 24.921875 -29.7109375 21.671875 C-28.43871907 15.80009761 -24.75680875 14.11608646 -19.8984375 10.921875 C-18.49531289 9.94904194 -17.09303275 8.97499025 -15.69140625 8 C-14.17878553 6.97145056 -12.66444806 5.94542147 -11.1484375 4.921875 C-10.0493103 4.16342285 -10.0493103 4.16342285 -8.92797852 3.38964844 C-3.62019483 -0.09757938 -3.62019483 -0.09757938 0 0 Z " fill="#030506" transform="translate(365.8984375,110.078125)"/>
<path d="M0 0 C5.53938917 1.64865148 10.17377504 5.2793754 14.96191406 8.43212891 C16.63253906 9.48207031 16.63253906 9.48207031 18.33691406 10.55322266 C19.39394531 11.24802734 20.45097656 11.94283203 21.54003906 12.65869141 C22.50844727 13.28598145 23.47685547 13.91327148 24.47460938 14.55957031 C27.45433785 17.55295534 27.6787552 19.64434681 27.71191406 23.80712891 C25.68791538 25.98961361 24.16384 27.24022135 21.71191406 28.80712891 C21.03725098 29.26394043 20.36258789 29.72075195 19.66748047 30.19140625 C17.4724615 31.65823402 15.25387394 33.08077817 13.02441406 34.49462891 C11.52046362 35.45679941 10.01655565 36.41903632 8.51269531 37.38134766 C7.85438721 37.79989014 7.1960791 38.21843262 6.51782227 38.6496582 C4.90405995 39.68397578 3.30677058 40.74389123 1.71191406 41.80712891 C-1.11888185 42.1609784 -2.65638683 42.19921801 -5.10058594 40.68212891 C-6.28808594 38.80712891 -6.28808594 38.80712891 -7.03808594 36.05712891 C-5.81753222 30.76806279 -1.6764201 28.6654575 2.71191406 25.80712891 C4.03555557 25.01976941 5.36772364 24.2463695 6.71191406 23.49462891 C9.78017639 22.13752872 9.78017639 22.13752872 10.71191406 19.80712891 C10.01710938 19.55447266 9.32230469 19.30181641 8.60644531 19.04150391 C5.32159789 17.64067828 2.42096543 15.96081695 -0.60058594 14.05712891 C-1.66921875 13.40228516 -2.73785156 12.74744141 -3.83886719 12.07275391 C-6.28808594 9.80712891 -6.28808594 9.80712891 -6.74902344 6.69384766 C-6.28808594 3.80712891 -6.28808594 3.80712891 -4.60058594 1.36962891 C-2.28808594 -0.19287109 -2.28808594 -0.19287109 0 0 Z " fill="#020405" transform="translate(439.2880859375,110.19287109375)"/>
<path d="M0 0 C3.42484369 2.28322912 4.97163392 4.19326784 6.8125 7.875 C7.46802736 13.11921886 6.56149292 16.39515969 3.8125 20.875 C1.4714976 23.70371123 -0.52604139 24.6206294 -4.203125 25.18359375 C-8.84629958 25.45146921 -11.5496234 25.09907468 -15.1875 22.0625 C-18.52068499 18.93763907 -19.36010442 16.06969377 -19.5625 11.5625 C-19.52876295 8.11007476 -19.11023073 6.14341619 -16.9375 3.4375 C-11.61467242 -1.52240752 -7.09590887 -2.50443842 0 0 Z " fill="#FAFAFA" transform="translate(212.1875,384.125)"/>
<path d="M0 0 C4.84591879 1.57454144 9.61019264 3.32419577 14.375 5.125 C15.11105469 5.40214844 15.84710938 5.67929687 16.60546875 5.96484375 C18.40402539 6.64222223 20.2020661 7.32097033 22 8 C22 11.63 22 15.26 22 19 C13.09 19 4.18 19 -5 19 C-3 14 -3 14 -1.9140625 12.015625 C-0.79899517 9.55675857 -0.58696655 7.43490967 -0.375 4.75 C-0.26285156 3.41195313 -0.26285156 3.41195313 -0.1484375 2.046875 C-0.09945312 1.37140625 -0.05046875 0.6959375 0 0 Z " fill="#F7BD88" transform="translate(172,275)"/>
<path d="M0 0 C6.875 0.875 6.875 0.875 8 2 C8.08851529 4.59359322 8.11525945 7.16039691 8.09765625 9.75390625 C8.0962413 10.52935287 8.09482635 11.3047995 8.09336853 12.10374451 C8.08775345 14.59003494 8.07519846 17.0762366 8.0625 19.5625 C8.05748694 21.24413933 8.0529237 22.92578006 8.04882812 24.60742188 C8.03777913 28.73831566 8.02050445 32.86914276 8 37 C6.35 36.67 4.7 36.34 3 36 C1.20654774 31.1108932 0.21689121 26.30327773 -0.625 21.1875 C-0.7590625 20.43146484 -0.893125 19.67542969 -1.03125 18.89648438 C-3.34926189 5.02389283 -3.34926189 5.02389283 0 0 Z " fill="#E3A662" transform="translate(103,135)"/>
<path d="M0 0 C2.97 0 5.94 0 9 0 C12.50234878 7.00469757 9.1835735 16.97208772 7.5 24.125 C7.26152344 25.176875 7.02304687 26.22875 6.77734375 27.3125 C6.19442336 29.87734972 5.6018584 32.43954068 5 35 C2.525 35.495 2.525 35.495 0 36 C0 24.12 0 12.24 0 0 Z " fill="#F8BE88" transform="translate(301,136)"/>
</svg>
